# xmcd CD database file generated by Grip 3.2.0
# 
# Track frame offsets:
#       225
#       17965
#       67447
#       84107
#       122527
#       157225
#       173377
#       187627
#       220742
#       243900
# 
# Disc length: 3580 seconds
# 
# Revision: 2
# Processed by: cddbd v1.5.2PL0 Copyright (c) Steve Scherf et al.
# Submitted via: Grip 3.2.0
# 
DISCID=7b0df90a
DTITLE=Albert Collins and The Icebreakers - Live '92-'93
DYEAR=1900
DGENRE=Blues
TTITLE0=Iceman
TTITLE1=Lights Are On But Nobody's Home
TTITLE2=If You Love Me (Like You Say)
TTITLE3=Put The Shoe On The Other Foot
TTITLE4=Frosty
TTITLE5=Travelin' South
TTITLE6=Talkin Woman
TTITLE7=My Woman Has A Black Cat Bone
TTITLE8=I Ain't Drunk
TTITLE9=T-Bone Shuffle
EXTD=
EXTT0=
EXTT1=
EXTT2=
EXTT3=
EXTT4=
EXTT5=
EXTT6=
EXTT7=
EXTT8=
EXTT9=
PLAYORDER=
